# This file uses centimeters as units for non-parametric coordinates.

mtllib finish line floor.mtl
g default
v -8.552770 0.000000 19.042925
v 2.580840 0.000000 19.042925
v -8.552770 1.151422 19.042925
v 2.580840 1.151422 19.042925
v -8.552770 1.151422 -24.977247
v 2.580840 1.151422 -24.977247
v -8.552770 0.000000 -24.977247
v 2.580840 0.000000 -24.977247
vt 0.840236 0.891242
vt 0.840236 0.001779
vt 0.882825 0.001779
vt 0.882825 0.891242
vt 0.890909 0.891242
vt 0.890909 0.001779
vt 0.933498 0.001779
vt 0.933498 0.891242
vt 0.001992 0.001779
vt 0.413802 0.001779
vt 0.413802 0.891242
vt 0.001992 0.891242
vt 0.421212 0.001779
vt 0.833022 0.001779
vt 0.833022 0.891242
vt 0.421212 0.891242
vt 0.941582 0.413589
vt 0.941582 0.001779
vt 0.984171 0.001779
vt 0.984171 0.413589
vt 0.955419 0.829390
vt 0.955419 0.417580
vt 0.998008 0.417580
vt 0.998008 0.829390
vn 0.000000 0.000000 1.000000
vn 0.000000 0.000000 1.000000
vn 0.000000 0.000000 1.000000
vn 0.000000 0.000000 1.000000
vn 0.000000 1.000000 0.000000
vn 0.000000 1.000000 0.000000
vn 0.000000 1.000000 0.000000
vn 0.000000 1.000000 0.000000
vn 0.000000 0.000000 -1.000000
vn 0.000000 0.000000 -1.000000
vn 0.000000 0.000000 -1.000000
vn 0.000000 0.000000 -1.000000
vn 0.000000 -1.000000 0.000000
vn 0.000000 -1.000000 0.000000
vn 0.000000 -1.000000 0.000000
vn 0.000000 -1.000000 0.000000
vn 1.000000 0.000000 0.000000
vn 1.000000 0.000000 0.000000
vn 1.000000 0.000000 0.000000
vn 1.000000 0.000000 0.000000
vn -1.000000 0.000000 0.000000
vn -1.000000 0.000000 0.000000
vn -1.000000 0.000000 0.000000
vn -1.000000 0.000000 0.000000
s off
g pCube2
usemtl texturedFacets2
f 1/17/1 2/18/2 4/19/3 3/20/4
f 3/9/5 4/10/6 6/11/7 5/12/8
f 5/21/9 6/22/10 8/23/11 7/24/12
f 7/13/13 8/14/14 2/15/15 1/16/16
f 2/1/17 8/2/18 6/3/19 4/4/20
f 7/5/21 1/6/22 3/7/23 5/8/24
